<svg width="24" height="28" viewBox="0 0 24 28" fill="none" xmlns="http://www.w3.org/2000/svg">
<path fill-rule="evenodd" clip-rule="evenodd" d="M17.2669 0C17.5182 1.7007 16.8235 3.36682 15.9072 4.54562C14.9268 5.81004 13.2369 6.78798 11.5996 6.73694C11.3007 5.10868 12.066 3.43103 12.9972 2.30327C14.0186 1.05862 15.7692 0.103721 17.2669 0ZM22.1854 23.9382C23.0295 22.6491 23.3448 21.9988 24 20.5434C19.2343 18.7373 18.4707 11.9856 23.1871 9.39417C21.7485 7.59633 19.727 6.55418 17.8187 6.55418C16.4437 6.55418 15.5016 6.91175 14.6452 7.23682C13.9315 7.50771 13.2772 7.75603 12.4815 7.75603C11.6216 7.75603 10.8601 7.48395 10.0628 7.19906C9.18662 6.886 8.26716 6.55748 7.12624 6.55748C4.98479 6.55748 2.70539 7.8614 1.26024 10.0906C-0.771178 13.2302 -0.424671 19.1324 2.86961 24.1605C4.04708 25.9599 5.62032 27.9817 7.67802 27.9998C8.53183 28.0082 9.09999 27.7543 9.71483 27.4795C10.4186 27.1649 11.1834 26.8231 12.5078 26.816C13.8399 26.8081 14.5927 27.1541 15.2871 27.4733C15.8862 27.7486 16.4417 28.004 17.2883 27.9948C19.3476 27.9784 21.0079 25.7377 22.1854 23.9382Z" fill="white"/>
</svg>
