<svg width="148" height="189" viewBox="0 0 148 189" fill="none" xmlns="http://www.w3.org/2000/svg">
<path d="M8.845 45.4895C15.2447 58.1955 22.744 69.9696 31.1296 80.6341C35.3224 85.9663 39.7534 90.9753 44.3526 95.6624C48.703 100.127 53.2234 104.361 57.9766 107.998C62.411 111.414 67.148 114.233 72.2054 115.589C76.876 116.816 81.6217 116.541 86.1219 114.449C90.3105 112.501 94.0799 108.786 96.1084 103.604C98.1388 98.5125 98.3675 92.4103 97.4877 86.785C96.4144 80.208 93.853 74.3429 90.6756 69.1271C87.2081 63.371 83.0529 58.1745 78.8709 53.3881C74.9736 48.8691 70.5606 44.7699 65.428 43.1422C61.1388 41.7708 56.4648 42.1363 52.7562 45.3949C45.0634 52.0998 45.7004 66.6489 47.7213 76.9841C48.9665 83.4213 50.9406 89.6165 53.0865 95.6718C55.3417 101.952 57.8727 108.046 60.6436 113.907C66.2929 125.763 72.834 136.782 79.889 147.291C87.0157 157.889 94.5506 167.933 102.222 177.793C104.086 180.213 105.986 182.679 107.885 185.053C109.031 186.486 107.33 188.795 106.184 187.362C98.1545 177.054 90.1611 166.792 82.576 155.975C75.0267 145.203 67.8517 133.923 61.6382 121.805C55.4982 109.867 50.318 97.0006 46.6617 83.4668C45.0405 77.4467 44.0049 71.0054 43.9828 64.5896C43.968 58.5377 44.9273 52.2846 47.7295 47.3601C50.5658 42.3894 55.0874 39.6152 59.7973 39.2946C64.8563 38.967 69.8619 41.2343 74.1244 44.7905C79.0961 48.8787 83.3624 54.3915 87.4531 59.8622C91.508 65.2882 95.3642 71.2642 97.8075 78.2237C99.8066 83.9178 100.805 90.2233 100.3 96.513C99.7957 102.803 97.5003 108.627 93.7722 112.66C90.01 116.739 85.268 118.971 80.4239 119.568C75.2323 120.262 70.0334 118.817 65.1639 116.365C60.1171 113.78 55.4338 110.142 50.9528 106.135C45.9738 101.683 41.1973 96.8624 36.589 91.7204C27.3707 81.3455 19.0692 69.6327 11.8295 56.8524C10.0563 53.7476 8.35115 50.5504 6.74987 47.3057C5.83816 45.367 7.97092 43.6866 8.845 45.4895Z" fill="#E98100"/>
</svg>
