<svg width="170" height="38" viewBox="0 0 170 38" fill="none" xmlns="http://www.w3.org/2000/svg">
<path d="M3.00738 6.85017C5.66536 3.26618 9.97472 0.942591 14.4453 0.80369C17.808 0.616774 21.2188 1.64395 23.9488 3.61429C28.3662 6.74213 30.9162 12.3959 30.0896 17.7753C29.6026 20.6374 28.2839 23.2988 26.6617 25.6807C25.0446 25.6652 23.4292 25.6772 21.8139 25.6755C20.8467 25.6584 19.8384 25.5418 18.9964 25.0239C17.5817 24.2231 16.6402 22.6523 16.6317 21.0215C16.6317 19.4884 16.63 17.9554 16.6351 16.4206C19.2382 16.4223 21.8413 16.4189 24.4444 16.4223C24.4598 14.2702 24.4513 12.1181 24.4496 9.966C21.8516 9.97286 19.2536 9.96943 16.6574 9.96943C14.5019 12.1181 12.348 14.2685 10.2011 16.4258C10.3022 18.9894 9.91127 21.6234 10.6692 24.1202C11.5558 27.1348 13.7919 29.7174 16.6437 31.0361C18.1424 31.7529 19.811 32.0718 21.4675 32.0924C19.8825 33.7018 18.2448 35.264 16.5138 36.7144C15.7093 37.3884 14.542 37.3851 13.738 36.7105C12.0518 35.2955 10.4458 33.7841 8.90981 32.209C6.44389 29.6539 4.15117 26.8965 2.39176 23.8012C1.14165 21.5754 0.160772 19.1317 0.0150116 16.5578C-0.141038 13.1058 0.923866 9.61104 3.00738 6.85017ZM10.2285 6.86731C10.2165 8.94225 10.2251 11.0172 10.2251 13.0921C10.2971 13.0733 10.4411 13.0355 10.5149 13.015C11.0636 12.353 11.7101 11.782 12.3069 11.1647C13.6667 9.82881 14.982 8.44324 16.3693 7.13826C16.3933 7.06966 16.443 6.9359 16.467 6.86903C14.387 6.85874 12.3086 6.86045 10.2285 6.86731Z" fill="#E98100"/>
<path d="M107.511 29.1925C106.001 29.1925 104.92 28.844 104.27 28.1471C103.62 27.4502 103.294 26.2887 103.294 24.6626V4.80103H105.176V24.6626C105.176 25.6847 105.35 26.4165 105.699 26.8578C106.07 27.2992 106.674 27.5199 107.511 27.5199H108.626V29.1925H107.511Z" fill="#E98100"/>
<path d="M116.666 29.4712C114.807 29.4712 113.309 28.8905 112.171 27.729C111.033 26.5442 110.463 24.9995 110.463 23.0946V17.9027C110.463 15.9979 111.033 14.4647 112.171 13.3032C113.332 12.1185 114.854 11.5261 116.735 11.5261H119.488C121.37 11.5261 122.88 12.1185 124.018 13.3032C125.18 14.4647 125.76 15.9979 125.76 17.9027V23.0946C125.76 24.9995 125.18 26.5442 124.018 27.729C122.857 28.8905 121.323 29.4712 119.419 29.4712H116.666ZM119.419 27.7987C120.766 27.7987 121.846 27.3689 122.659 26.5094C123.495 25.6499 123.914 24.5116 123.914 23.0946V17.9027C123.914 16.4857 123.507 15.3474 122.694 14.4879C121.881 13.6284 120.812 13.1986 119.488 13.1986H116.735C115.411 13.1986 114.343 13.6284 113.53 14.4879C112.74 15.3474 112.345 16.4857 112.345 17.9027V23.0946C112.345 24.5116 112.74 25.6499 113.53 26.5094C114.32 27.3689 115.365 27.7987 116.666 27.7987H119.419Z" fill="#E98100"/>
<path d="M134.906 29.4712C133.094 29.4712 131.631 28.9137 130.516 27.7987C129.424 26.6604 128.878 25.1737 128.878 23.3385V17.9724C128.878 16.0443 129.424 14.4879 130.516 13.3032C131.631 12.1185 133.083 11.5261 134.871 11.5261H137.729C139.424 11.5261 140.783 11.9907 141.806 12.9199C142.851 13.8491 143.374 15.0687 143.374 16.5786H141.562C141.562 15.5565 141.202 14.7434 140.481 14.1395C139.785 13.5123 138.867 13.1986 137.729 13.1986H134.871C133.64 13.1986 132.641 13.64 131.875 14.5228C131.131 15.3823 130.76 16.5321 130.76 17.9724V23.3385C130.76 24.6858 131.131 25.766 131.875 26.5791C132.641 27.3921 133.652 27.7987 134.906 27.7987H137.764C138.925 27.7987 139.866 27.3921 140.586 26.5791C141.306 25.766 141.666 24.6975 141.666 23.3734H143.478C143.478 25.2085 142.955 26.6836 141.91 27.7987C140.865 28.9137 139.483 29.4712 137.764 29.4712H134.906Z" fill="#E98100"/>
<path d="M151.572 29.4712C149.946 29.4712 148.645 29.0531 147.67 28.2168C146.694 27.3573 146.206 26.219 146.206 24.802V23.4779C146.206 22.0609 146.706 20.9342 147.705 20.0979C148.704 19.2617 150.028 18.8435 151.677 18.8435H153.942C154.732 18.8435 155.545 18.9713 156.381 19.2268C157.241 19.4823 157.972 19.8308 158.576 20.2722V16.8922C158.576 15.8004 158.239 14.906 157.566 14.2091C156.892 13.5123 156.021 13.1638 154.952 13.1638H152.235C151.143 13.1638 150.26 13.4193 149.586 13.9304C148.913 14.4414 148.576 15.1267 148.576 15.9862H146.694C146.694 14.6389 147.205 13.5587 148.227 12.7457C149.249 11.9326 150.585 11.5261 152.235 11.5261H154.952C156.602 11.5261 157.914 12.0139 158.89 12.9896C159.889 13.9652 160.388 15.2661 160.388 16.8922V29.1925H158.611V26.4746C158.007 27.4037 157.264 28.1355 156.381 28.6698C155.498 29.2041 154.604 29.4712 153.698 29.4712H151.572ZM153.733 27.7987C154.708 27.7987 155.638 27.4502 156.52 26.7533C157.426 26.0564 158.112 25.1388 158.576 24.0006V22.1189C158.065 21.6311 157.38 21.2362 156.52 20.9342C155.684 20.6322 154.825 20.4812 153.942 20.4812H151.677C150.585 20.4812 149.714 20.76 149.064 21.3175C148.413 21.8518 148.088 22.5719 148.088 23.4779V24.802C148.088 25.708 148.402 26.4397 149.029 26.9972C149.656 27.5315 150.504 27.7987 151.572 27.7987H153.733Z" fill="#E98100"/>
<path d="M168.885 29.1925C167.375 29.1925 166.295 28.844 165.645 28.1471C164.994 27.4502 164.669 26.2887 164.669 24.6626V4.80103H166.551V24.6626C166.551 25.6847 166.725 26.4165 167.073 26.8578C167.445 27.2992 168.049 27.5199 168.885 27.5199H170V29.1925H168.885Z" fill="#E98100"/>
<path d="M46.3682 29.1926C44.324 29.1926 42.8257 28.728 41.8732 27.7988C40.9208 26.8696 40.4446 25.4294 40.4446 23.4781V15.847H37.3782V11.805H40.584V6.54346H45.1835V11.805H49.7133V15.847H45.1835V23.269C45.1835 23.9194 45.2996 24.3957 45.5319 24.6976C45.7875 24.9996 46.1824 25.1506 46.7167 25.1506H49.7133V29.1926H46.3682Z" fill="#1D1D1D"/>
<path d="M51.8443 11.805H56.2348V14.0351C56.6761 13.3614 57.3033 12.8155 58.1164 12.3974C58.9527 11.956 59.8238 11.7353 60.7298 11.7353H63.0992V15.847H60.7298C59.4986 15.847 58.4997 16.2187 57.7331 16.9621C56.9665 17.7054 56.5832 18.6579 56.5832 19.8194V29.1926H51.8443V11.805Z" fill="#1D1D1D"/>
<path d="M69.8526 29.4714C68.0174 29.4714 66.5423 28.8558 65.4273 27.6246C64.3122 26.3702 63.7547 24.7325 63.7547 22.7115V11.805H68.4936V22.7812C68.4936 23.5478 68.6795 24.175 69.0512 24.6628C69.4461 25.1274 69.9571 25.3597 70.5843 25.3597H72.6053C73.3719 25.3597 74.0688 25.0461 74.696 24.4189C75.3232 23.7685 75.7646 22.9206 76.0201 21.8752V11.805H80.759V29.1926H76.3686V26.9626C75.8343 27.7059 75.1722 28.3099 74.3824 28.7745C73.6158 29.2391 72.8725 29.4714 72.1523 29.4714H69.8526Z" fill="#1D1D1D"/>
<path d="M90.3294 29.4714C88.8659 29.4714 87.565 29.2043 86.4268 28.67C85.3117 28.1124 84.4406 27.3459 83.8134 26.3702C83.1862 25.3713 82.8726 24.233 82.8726 22.9554V18.4604C82.8726 17.0898 83.1862 15.8819 83.8134 14.8365C84.4406 13.7912 85.3117 12.9781 86.4268 12.3974C87.565 11.8167 88.8659 11.5263 90.3294 11.5263H93.117C95.3471 11.5263 97.1358 12.1535 98.4831 13.4079C99.8304 14.6623 100.504 16.3349 100.504 18.4256V22.1191H87.6115V22.9554C87.6115 23.722 87.8554 24.3376 88.3432 24.8022C88.8311 25.2668 89.4931 25.4991 90.3294 25.4991H93.0473C93.8604 25.4991 94.5108 25.3249 94.9986 24.9764C95.5097 24.6047 95.7652 24.1285 95.7652 23.5478H100.434C100.434 24.7093 100.121 25.743 99.4936 26.649C98.8664 27.5549 97.9837 28.2518 96.8454 28.7397C95.7304 29.2275 94.4411 29.4714 92.9776 29.4714H90.3294ZM95.8349 18.7043V18.4256C95.8349 17.5196 95.591 16.7995 95.1032 16.2652C94.6153 15.7077 93.9649 15.4289 93.1518 15.4289H90.3294C89.4931 15.4289 88.8195 15.7193 88.3084 16.3C87.7973 16.8808 87.5418 17.6474 87.5418 18.5998V18.7043H95.8349Z" fill="#1D1D1D"/>
</svg>
