<svg width="253" height="65" viewBox="0 0 253 65" fill="none" xmlns="http://www.w3.org/2000/svg">
<path d="M85.2196 41.3461V47.6261H81.4407C78.7475 47.6261 76.648 46.9764 75.1423 45.6772C73.6365 44.349 72.8836 42.1979 72.8836 39.2239V29.609H69.9298V23.4589H72.8836V17.5688H80.3112V23.4589H85.1762V29.609H80.3112V39.3106C80.3112 40.0324 80.485 40.5521 80.8325 40.8697C81.18 41.1873 81.7592 41.3461 82.57 41.3461H85.2196ZM95.2644 27.4869C96.1332 26.1587 97.2191 25.1192 98.5222 24.3685C99.8252 23.5889 101.273 23.1991 102.866 23.1991V31.0383H100.824C98.9709 31.0383 97.581 31.4425 96.6543 32.2509C95.7278 33.0306 95.2644 34.4165 95.2644 36.4088V47.6261H87.8367V23.4589H95.2644V27.4869ZM128.83 23.4589V47.6261H121.402V44.3345C120.649 45.4028 119.621 46.269 118.318 46.9331C117.044 47.5684 115.625 47.8859 114.061 47.8859C112.208 47.8859 110.572 47.4817 109.153 46.6733C107.734 45.836 106.633 44.6376 105.851 43.0785C105.07 41.5193 104.679 39.6859 104.679 37.5782V23.4589H112.063V36.582C112.063 38.1989 112.483 39.4549 113.323 40.35C114.162 41.245 115.292 41.6926 116.711 41.6926C118.159 41.6926 119.302 41.245 120.142 40.35C120.982 39.4549 121.402 38.1989 121.402 36.582V23.4589H128.83ZM155.492 35.1527C155.492 35.8456 155.449 36.5676 155.362 37.3183H138.552C138.668 38.8197 139.146 39.9747 139.985 40.7831C140.854 41.5626 141.91 41.9525 143.156 41.9525C145.009 41.9525 146.298 41.1728 147.022 39.6137H154.928C154.522 41.2018 153.784 42.6309 152.713 43.9014C151.669 45.1719 150.352 46.168 148.76 46.8898C147.167 47.6116 145.386 47.9726 143.417 47.9726C141.042 47.9726 138.929 47.4673 137.075 46.4567C135.222 45.4461 133.773 44.0025 132.731 42.1257C131.688 40.2489 131.168 38.0545 131.168 35.5425C131.168 33.0306 131.674 30.8361 132.688 28.9594C133.731 27.0825 135.178 25.6389 137.032 24.6283C138.885 23.6177 141.014 23.1124 143.417 23.1124C145.762 23.1124 147.847 23.6034 149.671 24.5851C151.496 25.5668 152.915 26.9671 153.929 28.7861C154.97 30.6052 155.492 32.7273 155.492 35.1527ZM147.891 33.2037C147.891 31.9334 147.456 30.9228 146.588 30.172C145.72 29.4213 144.633 29.046 143.33 29.046C142.085 29.046 141.028 29.4069 140.159 30.1288C139.319 30.8506 138.798 31.8755 138.595 33.2037H147.891Z" fill="white"/>
<path d="M161.712 15.5767V47.6262H158.672V15.5767H161.712ZM177.459 47.9727C175.229 47.9727 173.217 47.4818 171.421 46.5001C169.656 45.4895 168.251 44.0747 167.208 42.2557C166.195 40.4078 165.688 38.2567 165.688 35.8025C165.688 33.3483 166.208 31.2117 167.252 29.3926C168.295 27.5447 169.713 26.1299 171.508 25.1482C173.304 24.1376 175.317 23.6323 177.547 23.6323C179.775 23.6323 181.788 24.1376 183.584 25.1482C185.408 26.1299 186.827 27.5447 187.841 29.3926C188.884 31.2117 189.404 33.3483 189.404 35.8025C189.404 38.2279 188.884 40.3645 187.841 42.2123C186.798 44.0603 185.365 45.4895 183.541 46.5001C181.716 47.4818 179.689 47.9727 177.459 47.9727ZM177.459 45.3307C179.024 45.3307 180.471 44.9842 181.803 44.2912C183.135 43.5694 184.206 42.5011 185.017 41.0863C185.857 39.6427 186.277 37.8814 186.277 35.8025C186.277 33.7236 185.872 31.9767 185.061 30.5619C184.25 29.1183 183.179 28.05 181.847 27.357C180.514 26.6352 179.066 26.2742 177.503 26.2742C175.939 26.2742 174.491 26.6352 173.159 27.357C171.827 28.05 170.756 29.1183 169.944 30.5619C169.163 31.9767 168.772 33.7236 168.772 35.8025C168.772 37.8814 169.163 39.6427 169.944 41.0863C170.756 42.5011 171.812 43.5694 173.115 44.2912C174.448 44.9842 175.896 45.3307 177.459 45.3307ZM192.037 35.8025C192.037 33.3483 192.529 31.2117 193.514 29.3926C194.499 27.5447 195.86 26.1299 197.597 25.1482C199.334 24.1376 201.317 23.6323 203.547 23.6323C206.473 23.6323 208.876 24.3541 210.758 25.7978C212.669 27.2415 213.9 29.2049 214.45 31.688H211.192C210.786 29.9844 209.904 28.6562 208.543 27.7035C207.211 26.7218 205.546 26.231 203.547 26.231C201.955 26.231 200.522 26.5918 199.247 27.3137C197.972 28.0355 196.96 29.1183 196.207 30.5619C195.483 31.9767 195.121 33.7236 195.121 35.8025C195.121 37.8814 195.483 39.6427 196.207 41.0863C196.96 42.53 197.972 43.6128 199.247 44.3346C200.522 45.0564 201.955 45.4174 203.547 45.4174C205.546 45.4174 207.211 44.9409 208.543 43.9881C209.904 43.0064 210.786 41.6493 211.192 39.9169H214.45C213.9 42.3423 212.669 44.2912 210.758 45.7639C208.846 47.2364 206.444 47.9727 203.547 47.9727C201.317 47.9727 199.334 47.4818 197.597 46.5001C195.86 45.4895 194.499 44.0747 193.514 42.2557C192.529 40.4078 192.037 38.2567 192.037 35.8025ZM217.155 35.7592C217.155 33.3338 217.633 31.2117 218.588 29.3926C219.573 27.5447 220.919 26.1299 222.629 25.1482C224.365 24.1376 226.321 23.6323 228.492 23.6323C230.752 23.6323 232.691 24.152 234.313 25.1914C235.963 26.231 237.151 27.5591 237.875 29.176V23.9788H240.915V47.6262H237.875V42.3856C237.122 44.0026 235.92 45.3452 234.269 46.4135C232.647 47.4529 230.708 47.9727 228.449 47.9727C226.306 47.9727 224.365 47.4674 222.629 46.4568C220.919 45.4462 219.573 44.017 218.588 42.1691C217.633 40.3211 217.155 38.1845 217.155 35.7592ZM237.875 35.8025C237.875 33.8968 237.484 32.2221 236.701 30.7785C235.92 29.3348 234.848 28.2232 233.487 27.4436C232.155 26.6641 230.678 26.2742 229.057 26.2742C227.377 26.2742 225.871 26.6496 224.54 27.4003C223.208 28.1511 222.15 29.2482 221.369 30.6919C220.616 32.1067 220.239 33.7957 220.239 35.7592C220.239 37.6937 220.616 39.3973 221.369 40.8698C222.15 42.3134 223.208 43.4251 224.54 44.2046C225.871 44.9553 227.377 45.3307 229.057 45.3307C230.678 45.3307 232.155 44.9409 233.487 44.1614C234.848 43.3817 235.92 42.2702 236.701 40.8264C237.484 39.3828 237.875 37.7081 237.875 35.8025ZM249.378 15.5767V47.6262H246.336V15.5767H249.378Z" fill="white"/>
<path d="M7.91578 10.694C12.5487 4.42147 20.06 0.354815 27.8522 0.111735C33.7135 -0.21545 39.6586 1.58221 44.417 5.03064C52.1167 10.5049 56.5612 20.3998 55.1205 29.8147C54.2717 34.8238 51.9732 39.4816 49.1455 43.6504C46.327 43.6233 43.5114 43.6444 40.6958 43.6413C39.01 43.6113 37.2525 43.4073 35.7849 42.5009C33.3191 41.0994 31.6781 38.3502 31.6631 35.496C31.6631 32.8129 31.6602 30.1298 31.669 27.4438C36.2063 27.4468 40.7436 27.4408 45.2809 27.4468C45.3077 23.6802 45.2929 19.9137 45.2898 16.1472C40.7615 16.1591 36.2333 16.1531 31.7079 16.1531C27.9508 19.9137 24.1967 23.6773 20.4544 27.4528C20.6308 31.9396 19.9494 36.5495 21.2704 40.9192C22.8157 46.1954 26.7134 50.7151 31.684 53.0232C34.2964 54.2777 37.2047 54.8359 40.0921 54.8719C36.6009 58.4313 32.9634 61.8587 29.0358 64.926C25.2039 61.9008 21.6053 58.5785 18.2038 55.0759C13.9057 50.6041 9.90942 45.7782 6.84274 40.3611C4.66379 36.4654 2.9541 32.1887 2.70004 27.6839C2.42804 21.6424 4.28419 15.526 7.91578 10.694ZM20.5024 10.724C20.4814 14.3555 20.4964 17.9869 20.4964 21.6185C20.6219 21.5854 20.8729 21.5193 21.0015 21.4833C21.9579 20.3248 23.0848 19.3254 24.1249 18.245C26.4952 15.9071 28.7877 13.4821 31.2058 11.1981C31.2476 11.0782 31.3343 10.844 31.3761 10.727C27.7505 10.709 24.128 10.712 20.5024 10.724Z" fill="white"/>
</svg>
