<svg width="20" height="21" viewBox="0 0 20 21" fill="none" xmlns="http://www.w3.org/2000/svg">
<path d="M4.34325 3.79726C5.84353 2.32635 7.87834 1.5 10.0001 1.5C12.1218 1.5 14.1566 2.32635 15.6569 3.79726C17.1571 5.26817 18 7.26315 18 9.34333C18 11.4235 17.1571 13.4185 15.6569 14.8894L14.5663 15.9469C13.7624 16.7198 12.7196 17.7142 11.437 18.9303C11.0515 19.2957 10.5363 19.5 10.0001 19.5C9.46384 19.5 8.9486 19.2957 8.56312 18.9303L5.35572 15.8713C4.95239 15.483 4.6152 15.156 4.34325 14.8894C3.60035 14.1611 3.01105 13.2965 2.60899 12.3449C2.20694 11.3933 2 10.3733 2 9.34333C2 8.31332 2.20694 7.2934 2.60899 6.3418C3.01105 5.3902 3.60035 4.52556 4.34325 3.79726ZM14.6821 4.75208C13.4401 3.53464 11.7557 2.85079 9.99941 2.85096C8.24314 2.85113 6.55888 3.53531 5.31713 4.75298C4.07539 5.97066 3.37788 7.62209 3.37805 9.34397C3.37822 11.0659 4.07606 12.7171 5.31805 13.9346L6.68333 15.2569C7.62642 16.1603 8.57213 17.0611 9.52046 17.9593C9.64898 18.0812 9.82079 18.1493 9.9996 18.1493C10.1784 18.1493 10.3502 18.0812 10.4787 17.9593L13.597 14.9867C14.0288 14.5714 14.3899 14.221 14.6811 13.9346C15.9229 12.7171 16.6204 11.0659 16.6204 9.34423C16.6204 7.62253 15.9229 5.97134 14.6811 4.75388L14.6821 4.75208ZM10.0001 6.88782C10.3623 6.88782 10.7209 6.95776 11.0555 7.09366C11.3902 7.22955 11.6942 7.42874 11.9503 7.67984C12.2065 7.93094 12.4096 8.22904 12.5482 8.55712C12.6868 8.8852 12.7582 9.23684 12.7582 9.59195C12.7582 9.94706 12.6868 10.2987 12.5482 10.6268C12.4096 10.9549 12.2065 11.253 11.9503 11.5041C11.6942 11.7552 11.3902 11.9543 11.0555 12.0902C10.7209 12.2261 10.3623 12.2961 10.0001 12.2961C9.2774 12.2831 8.58879 11.9926 8.08239 11.487C7.57599 10.9813 7.29227 10.301 7.29227 9.5924C7.29227 8.88377 7.57599 8.20345 8.08239 7.69782C8.58879 7.19219 9.2774 6.90165 10.0001 6.88872V6.88782ZM10.0001 8.23898C9.81884 8.23898 9.63939 8.27398 9.47196 8.34197C9.30454 8.40996 9.15241 8.50962 9.02427 8.63526C8.89612 8.76089 8.79448 8.91004 8.72512 9.07419C8.65577 9.23834 8.62008 9.41427 8.62008 9.59195C8.62008 9.76962 8.65577 9.94556 8.72512 10.1097C8.79448 10.2739 8.89612 10.423 9.02427 10.5486C9.15241 10.6743 9.30454 10.7739 9.47196 10.8419C9.63939 10.9099 9.81884 10.9449 10.0001 10.9449C10.3659 10.9449 10.7168 10.8024 10.9755 10.5488C11.2342 10.2951 11.3796 9.95111 11.3796 9.5924C11.3796 9.23369 11.2342 8.88967 10.9755 8.63603C10.7168 8.38238 10.3659 8.23988 10.0001 8.23988V8.23898Z" fill="black"/>
</svg>
