<svg width="117" height="16" viewBox="0 0 117 16" fill="none" xmlns="http://www.w3.org/2000/svg">
<path d="M8.4117 0L11.115 5.12377L16.8234 6.11146L12.7858 10.2658L13.6104 16L8.4117 13.4438L3.21298 16L4.03762 10.2658L0 6.11146L5.70837 5.12377L8.4117 0Z" fill="#F6A001"/>
<path d="M33.2351 0L35.9385 5.12377L41.6468 6.11146L37.6092 10.2658L38.4338 16L33.2351 13.4438L28.0364 16L28.861 10.2658L24.8234 6.11146L30.5318 5.12377L33.2351 0Z" fill="#F6A001"/>
<path d="M58.0585 0L60.7618 5.12377L66.4702 6.11146L62.4326 10.2658L63.2572 16L58.0585 13.4438L52.8598 16L53.6844 10.2658L49.6468 6.11146L55.3552 5.12377L58.0585 0Z" fill="#F6A001"/>
<path d="M82.8819 0L85.5852 5.12377L91.2936 6.11146L87.256 10.2658L88.0806 16L82.8819 13.4438L77.6832 16L78.5078 10.2658L74.4702 6.11146L80.1786 5.12377L82.8819 0Z" fill="#F6A001"/>
<path d="M107.705 0L110.409 5.12377L116.117 6.11146L112.079 10.2658L112.904 16L107.705 13.4438L102.507 16L103.331 10.2658L99.2936 6.11146L105.002 5.12377L107.705 0Z" fill="#F6A001"/>
</svg>
